<svg version="1.2" xmlns="http://www.w3.org/2000/svg" viewBox="0 0 26 27" width="26" height="27">
	<title>Group 71-svg</title>
	<style>
		.s0 { fill: #84a6a8;stroke: #1b2858 } 
		.s1 { fill: #b0b9d1;stroke: #1b2858 } 
		.s2 { fill: #589195;stroke: #1b2858 } 
		.s3 { fill: #589195 } 
	</style>
	<path id="Layer" class="s0" d="m0.5 0.5h22v23h-22z"/>
	<path id="Layer" class="s1" d="m3.5 3.5h22v23h-22z"/>
	<path id="Layer" class="s2" d="m8.5 8.5h12v13h-12z"/>
	<path id="Layer" fill-rule="evenodd" class="s3" d="m50.1 10.1q0-1.6-0.7-2.6-0.7-0.9-2.1-0.9 0 0 0-0.2 0-0.1 0-0.1h1.5q1.1 0 1.8 0 0.6 0 1.7 0h1.3q0.1 0 0.1 0.1 0 0.2-0.1 0.2-1.1 0-1.8 0.9-0.7 1-0.7 2.6v8.3q0 2.1-0.9 3.7-0.9 1.6-2.6 2.5-1.7 0.8-3.9 0.8-2.2 0-4-0.8-1.7-0.9-2.7-2.5-0.9-1.6-0.9-3.7v-9.7q0-0.9-0.2-1.3-0.1-0.5-0.6-0.6-0.4-0.2-1.3-0.2-0.1 0-0.1-0.2 0-0.2 0.1-0.2l1.5 0.1q1.4 0 2.2 0 0.9 0 2.3 0l1.5-0.1q0.1 0 0.1 0.2 0 0.2-0.1 0.2-0.9 0-1.3 0.2-0.5 0.2-0.6 0.6-0.2 0.4-0.2 1.3v8.6q0 3.6 1.4 5.3 1.4 1.7 4 1.7 2.5 0 3.9-1.5 1.4-1.5 1.4-4.3zm5 14.9q0 0 0-0.2 0-0.2 0-0.2 1 0 1.3-0.4 0.4-0.5 0.4-1.7v-15.2q0-1.1-0.2-1.5-0.2-0.5-0.7-0.4-0.4-0.1-1.1 0.3-0.1 0-0.2-0.2-0.1-0.2 0-0.2l4.4-2.1h0.1q0.2 0 0.3 0.2 0.2 0.1 0.2 0.2v18.9q0 1.2 0.3 1.7 0.4 0.4 1.3 0.4 0.1 0 0.1 0.2 0 0.2-0.1 0.2-0.7 0-1.2-0.1h-1.8-1.8q-0.5 0.1-1.3 0.1zm8.2 0q-0.1 0-0.1-0.2 0-0.2 0.1-0.2 0.9 0 1.3-0.4 0.3-0.5 0.3-1.7v-5.3q0-1.1-0.2-1.5-0.2-0.4-0.7-0.4-0.4 0-1.1 0.3h-0.1q-0.1 0-0.1-0.2-0.1-0.2 0-0.2l4.5-2.1h0.1q0.2 0 0.3 0.1 0.2 0.2 0.2 0.3v0.7q-0.1 1.2-0.1 2.9v5.4q0 1.2 0.3 1.7 0.4 0.4 1.3 0.4 0.1 0 0.1 0.2 0 0.2-0.1 0.2-0.8 0-1.2-0.1h-1.8-1.8q-0.4 0.1-1.2 0.1zm2.9-14.9q-0.9 0-1.4-0.5-0.5-0.4-0.5-1.3 0-0.8 0.5-1.2 0.5-0.5 1.4-0.5 0.8 0 1.3 0.4 0.4 0.5 0.4 1.3 0 0.9-0.4 1.3-0.5 0.5-1.3 0.5zm19.1 14.5q0.1 0 0.1 0.2 0 0.2-0.1 0.2-0.8 0-1.3-0.1h-1.8-1.7q-0.5 0.1-1.3 0.1 0 0 0-0.2 0-0.2 0-0.2 1 0 1.3-0.4 0.3-0.5 0.3-1.7v-4.3q0-1.6-0.6-2.4-0.5-0.8-1.8-0.8-0.7 0-1.5 0.3-0.7 0.3-1.3 0.8v6.4q0 1.2 0.3 1.7 0.4 0.4 1.3 0.4 0.1 0 0.1 0.2 0 0.2-0.1 0.2-0.8 0-1.2-0.1h-1.8-1.8q-0.4 0.1-1.2 0.1-0.1 0-0.1-0.2 0-0.2 0.1-0.2 0.9 0 1.2-0.4 0.4-0.5 0.4-1.7v-5.6q0-0.9-0.3-1.4-0.2-0.4-0.7-0.4-0.5 0-1.4 0.4h-0.1q-0.1 0-0.1-0.1 0-0.2 0-0.2l4.2-2.1q0.2 0 0.2 0 0.3 0 0.6 0.7 0.3 0.6 0.4 1.7 2.1-2.5 4.5-2.5 1.7 0 2.6 1.1 1 1 1 2.7v5.7q0 1.2 0.3 1.7 0.3 0.4 1.3 0.4zm13.1-1.3q0.1 0 0.1 0.2 0.1 0.1 0 0.2l-3.1 1.4q-0.2 0.1-0.3 0.1-0.5 0-0.9-0.4-0.5-0.5-0.6-1.3l-1.4 0.8q-0.8 0.4-1.6 0.6-0.9 0.3-1.5 0.3-1 0-1.6-0.5-0.5-0.5-0.5-1.4 0-0.7 0.3-1.2 0.4-0.4 1-0.6 0.7-0.3 2.1-0.8l3-1v-2.4q0-1.8-0.3-2.6-0.4-0.9-1.2-0.9-0.7 0-1.1 0.5-0.4 0.6-0.5 1.8-0.2 1.7-1.8 1.7-1.4 0-1.4-1.2 0-0.8 1-1.7 1-0.8 2.5-1.3 1.4-0.5 2.5-0.5 1.4 0 2.3 0.9 0.9 0.8 0.9 2.4v5.3q0 0.9 0.3 1.4 0.3 0.5 0.9 0.5 0.4 0 0.8-0.3zm-4.9-0.3q0-0.2 0-0.6v-2.2l-1.6 0.6q-0.8 0.3-1.2 0.7-0.3 0.3-0.3 0.8 0 0.7 0.3 1 0.4 0.4 0.9 0.4 0.7 0 1.6-0.4z"/>
</svg>